<svg width="1920" height="475" viewBox="0 0 1920 475" fill="none" xmlns="http://www.w3.org/2000/svg">
<g filter="url(#filter0_b_197_2)">
<rect width="1920" height="475" fill="url(#paint0_linear_197_2)"/>
</g>
<path d="M574.875 253.75V265.25H529.875V303.125H516.125V265.25H471.625V253.75H574.875ZM482.5 219.5C482.438 204 498.938 194.188 523 194.125C547.062 194.188 563.688 204 563.75 219.5C563.688 234.812 547.062 244.562 523 244.5C498.938 244.562 482.438 234.812 482.5 219.5ZM496.75 219.5C496.688 228.312 507.062 233.5 523 233.5C539 233.5 549.375 228.312 549.375 219.5C549.375 210.625 539 205.375 523 205.375C507.062 205.375 496.688 210.625 496.75 219.5ZM676.5 190.125V303.25H662.75V190.125H676.5ZM588.5 211.25V200H641.75V242.375H602.875V265.125C620.688 265 636 264.062 653.625 261.125L654.875 272.5C635.688 275.812 618.812 276.562 598.5 276.5H588.625V231.375H627.625V211.25H588.5ZM790.5 201V212H723.5V201H750.125V189.625H764V201H790.5ZM729.25 237C729.25 224.625 740.688 216.375 757 216.375C773.312 216.375 784.562 224.625 784.625 237C784.562 249.375 773.312 257.625 757 257.625C740.688 257.625 729.25 249.375 729.25 237ZM737.25 277.25V266.125H812.5V303.125H798.625V277.25H737.25ZM742.75 237C742.688 243.375 748.438 246.938 757 246.875C765.562 246.938 771.375 243.375 771.375 237C771.375 230.625 765.562 226.875 757 226.875C748.438 226.875 742.688 230.625 742.75 237ZM798.625 260.875V190.125H812.5V220.125H828.25V231.5H812.5V260.875H798.625ZM926.625 200.5V212C926.625 226.062 926.625 241.188 922.5 263.375L908.875 262C912.75 241.062 912.75 225.688 912.75 212V211.625H844.375V200.5H926.625ZM834 288.5V277.125H857.125V241.125H871V277.125H885.375V241.125H899V277.125H937V288.5H834ZM1033.12 190.125V234.25H1049.88V245.875H1033.12V302.875H1019.25V190.125H1033.12ZM944 272C971.5 258.25 986.375 239.125 989.125 213.375H950.125V201.875H1003.25C1003.19 235.062 989.438 264.25 951.875 282.75L944 272ZM1114 210.5C1114 219.062 1115.75 230.375 1122.62 238.688C1129.44 230.438 1131.19 219.375 1131.25 210.5V209.25H1124.75V198H1156.75V209.25H1144.38V210.5C1144.38 222.812 1148.75 236.625 1161.75 243.375L1154.25 253.375C1146 249 1140.88 241.625 1137.88 233.125C1135.31 241.812 1130.62 249.688 1122.5 254.5C1114.62 249.688 1110 241.875 1107.44 233.375C1104.44 241.75 1099.31 249.062 1091.12 253.375L1083.62 243.375C1096.44 236.688 1101.06 222.5 1101 210.5V209.25H1088V198H1120.62V209.25H1114V210.5ZM1101 281.5C1101 267.875 1115.75 259.938 1139.75 260C1163.81 259.938 1178.75 267.875 1178.75 281.5C1178.75 295.188 1163.81 303 1139.75 303C1115.75 303 1101 295.188 1101 281.5ZM1115 281.5C1115 288.438 1123.81 292.062 1139.75 292.125C1155.62 292.062 1164.5 288.438 1164.62 281.5C1164.5 274.688 1155.62 271 1139.75 271C1123.81 271 1115 274.688 1115 281.5ZM1163.88 258.75V190.125H1177.75V218.125H1190.25V229.875H1177.75V258.75H1163.88ZM1290.25 190.125V303.25H1276.25V190.125H1290.25ZM1199.88 238.25C1199.81 213.875 1212.25 198.375 1229.38 198.375C1246.31 198.375 1258.81 213.875 1258.88 238.25C1258.81 262.812 1246.31 278.25 1229.38 278.25C1212.25 278.25 1199.81 262.812 1199.88 238.25ZM1213.25 238.25C1213.25 255.625 1219.81 265.688 1229.38 265.75C1238.88 265.688 1245.38 255.625 1245.38 238.25C1245.38 221 1238.88 210.875 1229.38 210.875C1219.81 210.875 1213.25 221 1213.25 238.25ZM1395.38 190.125V233H1412.75V244.375H1395.38V303.25H1381.5V190.125H1395.38ZM1311.5 275.625V200.875H1364.38V212.125H1325.38V264C1342.94 263.938 1356.88 263.062 1372.38 260.375L1374 272.125C1356.44 275.125 1341.25 275.625 1320.88 275.625H1311.5ZM1440.75 201.5L1439.38 265.375H1425.25L1423.75 201.5H1440.75ZM1422.62 283.25C1422.56 278 1427 273.688 1432.38 273.625C1437.56 273.688 1442 278 1442 283.25C1442 288.625 1437.56 293 1432.38 293C1427 293 1422.56 288.625 1422.62 283.25Z" fill="white"/>
<path d="M832.281 352.406V357.328H817V352.406H832.281ZM861.672 333.328V337.5H852.766C852.836 342.469 856.492 347.25 863.172 349.125L860.547 353.203C855.648 351.75 852.109 348.68 850.188 344.766C848.266 348.984 844.656 352.312 839.594 353.906L836.969 349.828C843.742 347.836 847.398 342.773 847.516 337.5H838.375V333.328H861.672ZM843.953 372.656V355.641H849.109V360H866.781V355.641H871.984V372.656H843.953ZM849.109 368.438H866.781V364.031H849.109V368.438ZM866.734 353.766V330.797H871.984V353.766H866.734ZM911.359 330.797V347.344H917.641V351.703H911.359V373.078H906.156V330.797H911.359ZM877.938 361.5C888.25 356.344 893.828 349.172 894.859 339.516H880.234V335.203H900.156C900.133 347.648 894.977 358.594 880.891 365.531L877.938 361.5ZM954.25 334.688V338.766C954.203 344.039 954.203 349.922 952.562 358.781L947.312 358.219C948.977 349.969 948.977 343.945 949 338.859H923.688V334.688H954.25ZM919.656 367.688V363.422H933.906V348.703H939.062V363.422H958.281V367.688H919.656ZM999.812 350.438V354.703H961.141V350.438H999.812ZM965.641 365.344C965.641 360.422 971.195 357.633 980.406 357.656C989.547 357.633 995.055 360.422 995.078 365.344C995.055 370.336 989.547 373.125 980.406 373.125C971.195 373.125 965.641 370.336 965.641 365.344ZM965.875 347.109V332.156H995.125V336.375H971.078V342.938H995.359V347.109H965.875ZM970.938 365.344C970.914 367.852 974.242 369.094 980.406 369.094C986.477 369.094 989.828 367.852 989.875 365.344C989.828 362.953 986.477 361.641 980.406 361.641C974.242 361.641 970.914 362.953 970.938 365.344ZM1027.8 334.875V339H1002.67V334.875H1012.66V330.609H1017.86V334.875H1027.8ZM1004.83 348.375C1004.83 343.734 1009.12 340.641 1015.23 340.641C1021.35 340.641 1025.57 343.734 1025.59 348.375C1025.57 353.016 1021.35 356.109 1015.23 356.109C1009.12 356.109 1004.83 353.016 1004.83 348.375ZM1007.83 363.469V359.297H1036.05V373.172H1030.84V363.469H1007.83ZM1009.89 348.375C1009.87 350.766 1012.02 352.102 1015.23 352.078C1018.45 352.102 1020.62 350.766 1020.62 348.375C1020.62 345.984 1018.45 344.578 1015.23 344.578C1012.02 344.578 1009.87 345.984 1009.89 348.375ZM1030.84 357.328V330.797H1036.05V342.047H1041.95V346.312H1036.05V357.328H1030.84ZM1078.84 334.688V339C1078.84 344.273 1078.84 349.945 1077.3 358.266L1072.19 357.75C1073.64 349.898 1073.64 344.133 1073.64 339V338.859H1048V334.688H1078.84ZM1044.11 367.688V363.422H1052.78V349.922H1057.98V363.422H1063.38V349.922H1068.48V363.422H1082.73V367.688H1044.11ZM1102.47 352.406V357.328H1087.19V352.406H1102.47Z" fill="white"/>
<path d="M793.236 115.772H780.204C778.409 115.772 776.947 117.045 776.947 118.607V126.17C776.947 127.733 778.409 129.005 780.204 129.005H793.236C795.031 129.005 796.493 127.733 796.493 126.17V118.607C796.493 117.045 795.031 115.772 793.236 115.772ZM785.632 127.116H780.204C779.916 127.115 779.64 127.015 779.437 126.838C779.233 126.661 779.118 126.421 779.118 126.17V118.607C779.118 118.357 779.233 118.116 779.437 117.939C779.64 117.762 779.916 117.662 780.204 117.662H785.635L785.632 127.116ZM794.32 126.172C794.319 126.423 794.204 126.663 794.001 126.84C793.797 127.017 793.521 127.117 793.233 127.118H787.803V117.664H793.233C793.521 117.664 793.797 117.764 794.001 117.941C794.204 118.118 794.319 118.359 794.32 118.609V126.172ZM793.236 135.624H780.204C778.409 135.624 776.947 136.897 776.947 138.459V146.022C776.947 147.585 778.409 148.857 780.204 148.857H793.236C795.031 148.857 796.493 147.585 796.493 146.022V138.459C796.493 136.897 795.031 135.624 793.236 135.624ZM785.632 146.968H780.204C779.916 146.967 779.64 146.867 779.437 146.69C779.233 146.513 779.118 146.273 779.118 146.022V138.459C779.118 138.209 779.233 137.969 779.437 137.791C779.64 137.614 779.916 137.514 780.204 137.514H785.635L785.632 146.968ZM794.32 146.022C794.319 146.273 794.204 146.513 794.001 146.69C793.797 146.867 793.521 146.967 793.233 146.968H787.803V137.514H793.233C793.521 137.514 793.797 137.614 794.001 137.791C794.204 137.969 794.319 138.209 794.32 138.459V146.022ZM793.236 154.53H780.204C778.409 154.53 776.947 155.803 776.947 157.366V164.928C776.947 166.491 778.409 167.764 780.204 167.764H793.236C795.031 167.764 796.493 166.491 796.493 164.928V157.366C796.493 155.803 795.031 154.53 793.236 154.53ZM785.632 165.874H780.204C779.916 165.874 779.64 165.774 779.437 165.596C779.233 165.419 779.118 165.179 779.118 164.928V157.366C779.118 157.115 779.233 156.875 779.437 156.698C779.64 156.52 779.916 156.42 780.204 156.42H785.635L785.632 165.874ZM794.32 164.928C794.319 165.179 794.204 165.419 794.001 165.596C793.797 165.774 793.521 165.874 793.233 165.874H787.803V156.42H793.233C793.521 156.42 793.797 156.52 794.001 156.698C794.204 156.875 794.319 157.115 794.32 157.366V164.928ZM872.507 118.609V126.172C872.507 127.735 873.969 129.007 875.764 129.007H888.796C890.591 129.007 892.053 127.735 892.053 126.172V118.609C892.053 117.047 890.591 115.774 888.796 115.774H875.764C874.901 115.775 874.073 116.073 873.462 116.605C872.851 117.137 872.508 117.858 872.507 118.609ZM883.368 117.664H888.798C889.086 117.664 889.362 117.764 889.566 117.941C889.769 118.118 889.884 118.359 889.885 118.609V126.172C889.884 126.423 889.769 126.663 889.566 126.84C889.362 127.017 889.086 127.117 888.798 127.118H883.368V117.664ZM881.195 127.116H875.764C875.476 127.115 875.2 127.015 874.997 126.838C874.793 126.661 874.679 126.421 874.678 126.17V118.607C874.679 118.357 874.793 118.116 874.997 117.939C875.2 117.762 875.476 117.662 875.764 117.662H881.195V127.116ZM888.798 135.624H875.767C873.971 135.624 872.51 136.897 872.51 138.459V146.022C872.51 147.585 873.971 148.857 875.767 148.857H888.798C890.593 148.857 892.055 147.585 892.055 146.022V138.459C892.055 136.897 890.593 135.624 888.798 135.624ZM881.195 146.968H875.764C875.476 146.967 875.2 146.867 874.997 146.69C874.793 146.513 874.679 146.273 874.678 146.022V138.459C874.679 138.209 874.793 137.969 874.997 137.791C875.2 137.614 875.476 137.514 875.764 137.514H881.195V146.968ZM889.882 146.022C889.882 146.273 889.767 146.513 889.563 146.69C889.36 146.867 889.084 146.967 888.796 146.968H883.365V137.514H888.796C889.084 137.514 889.36 137.614 889.563 137.791C889.767 137.969 889.882 138.209 889.882 138.459V146.022ZM888.798 154.53H875.767C873.971 154.53 872.51 155.803 872.51 157.366V164.928C872.51 166.491 873.971 167.764 875.767 167.764H888.798C890.593 167.764 892.055 166.491 892.055 164.928V157.366C892.055 155.803 890.593 154.53 888.798 154.53ZM881.195 165.874H875.764C875.476 165.874 875.2 165.774 874.997 165.596C874.793 165.419 874.679 165.179 874.678 164.928V157.366C874.679 157.115 874.793 156.875 874.997 156.698C875.2 156.52 875.476 156.42 875.764 156.42H881.195V165.874ZM889.882 164.928C889.882 165.179 889.767 165.419 889.563 165.596C889.36 165.774 889.084 165.874 888.796 165.874H883.365V156.42H888.796C889.084 156.42 889.36 156.52 889.563 156.698C889.767 156.875 889.882 157.115 889.882 157.366V164.928ZM812.489 129.268C811.268 128.909 810.729 128.703 810.729 128.235C810.729 127.856 811.178 127.529 812.112 127.529C813.036 127.529 813.713 127.735 814.09 127.876L814.57 126.539C813.798 126.282 812.977 126.157 812.151 126.17C809.911 126.17 808.563 127.128 808.563 128.376C808.563 129.439 809.589 130.115 811.167 130.538C812.304 130.851 812.756 131.115 812.756 131.571C812.756 132.049 812.234 132.363 811.25 132.363C810.337 132.363 809.452 132.137 808.875 131.907L808.44 133.277C808.973 133.505 810.043 133.722 811.127 133.722C813.729 133.722 814.952 132.68 814.952 131.452C814.952 130.419 814.164 129.745 812.489 129.268ZM821.239 127.541C821.997 127.541 822.604 127.668 823.037 127.811L823.473 126.499C823.095 126.345 822.252 126.172 821.14 126.172C818.269 126.172 815.96 127.561 815.96 130.062C815.96 132.149 817.649 133.722 820.929 133.722C822.083 133.722 822.97 133.561 823.364 133.408L823.037 132.115C822.459 132.273 821.857 132.354 821.251 132.355C819.34 132.355 818.214 131.429 818.214 129.963C818.216 128.334 819.539 127.541 821.239 127.541ZM830.455 129.106H826.922V126.291H824.772V133.613H826.922V130.548H830.455V133.613H832.593V126.291H830.455V129.106ZM838.642 126.172C835.844 126.172 834.03 127.811 834.03 130.006C834.03 132.093 835.675 133.734 838.487 133.734C841.26 133.734 843.143 132.276 843.143 129.879C843.141 127.854 841.554 126.172 838.642 126.172ZM838.603 132.42C837.166 132.42 836.295 131.407 836.295 129.973C836.295 128.55 837.139 127.485 838.587 127.485C840.065 127.485 840.88 128.616 840.88 129.931C840.88 131.355 840.048 132.42 838.603 132.42ZM848.734 126.172C845.933 126.172 844.119 127.811 844.119 130.006C844.119 132.093 845.764 133.734 848.576 133.734C851.351 133.734 853.235 132.276 853.235 129.879C853.233 127.854 851.641 126.172 848.734 126.172ZM848.69 132.42C847.253 132.42 846.382 131.407 846.382 129.973C846.382 128.55 847.225 127.485 848.673 127.485C850.154 127.485 850.967 128.616 850.967 129.931C850.967 131.355 850.137 132.42 848.69 132.42ZM856.791 126.291H854.639V133.613H860.562V132.222H856.791V126.291ZM849.704 109.155C849.704 105.645 848.102 102.279 845.251 99.7965C842.4 97.3144 838.532 95.9199 834.5 95.9199C830.468 95.9199 826.6 97.3144 823.749 99.7965C820.898 102.279 819.296 105.645 819.296 109.155C819.296 112.666 820.898 116.032 823.749 118.514C826.6 120.996 830.468 122.391 834.5 122.391C838.532 122.391 842.4 120.996 845.251 118.514C848.102 116.032 849.704 112.666 849.704 109.155ZM823.642 109.155C823.642 106.647 824.787 104.242 826.825 102.469C828.863 100.696 831.626 99.7006 834.507 99.7012C837.388 99.7017 840.151 100.698 842.187 102.472C844.224 104.246 845.368 106.651 845.367 109.159C845.367 111.667 844.222 114.072 842.184 115.845C840.147 117.618 837.383 118.614 834.502 118.613C831.621 118.613 828.859 117.616 826.822 115.842C824.785 114.069 823.641 111.663 823.642 109.155Z" fill="#F8F8F8"/>
<path d="M836.673 111.048V103.485C836.673 102.445 835.695 101.594 834.5 101.594C833.305 101.594 832.327 102.445 832.327 103.485V109.158H830.154C828.959 109.158 827.981 110.009 827.981 111.05C827.981 112.09 828.959 112.942 830.154 112.942H834.5C835.076 112.939 835.627 112.738 836.034 112.384C836.441 112.029 836.671 111.549 836.673 111.048Z" fill="#F8F8F8"/>
<path d="M901.829 173.437H899.656V112.937H901.125C903.569 112.937 904.67 111.415 903.578 109.556L896.45 97.4132C895.357 95.5538 892.463 94.0312 890.021 94.0312H853.281L836.671 82.3265V77.7084C845.358 83.7422 854.046 64.7089 862.733 70.7448C854.046 60.0686 845.358 74.4575 836.671 63.7812V61.8916C836.673 60.851 835.695 60 834.5 60C833.305 60 832.327 60.851 832.327 61.8916V82.3285L815.716 94.0333H778.981C776.537 94.0333 773.643 95.5558 772.552 97.4152L765.424 109.558C764.33 111.417 765.433 112.94 767.877 112.94H769.346V173.44H767.173C766.597 173.441 766.046 173.64 765.639 173.994C765.231 174.348 765.002 174.828 765 175.329V179.11C765.002 179.611 765.231 180.091 765.639 180.445C766.046 180.8 766.597 180.999 767.173 181H901.829C902.404 180.998 902.955 180.799 903.362 180.445C903.769 180.091 903.998 179.611 904 179.11V175.329C903.999 174.828 903.77 174.348 903.363 173.993C902.956 173.639 902.405 173.439 901.829 173.437ZM799.75 173.437H773.687V112.937H794.392C794.433 113.266 794.507 113.579 794.623 113.863C795.191 115.245 796.84 116.719 799.752 116.719L799.75 173.437ZM857.667 178.669H811.333V175.644H857.667V178.669ZM821.469 173.437V150.75H833.413V173.437H821.469ZM835.587 173.437V150.75H847.531V173.437H835.587ZM864.906 173.437H851.875V150.75H856.219V146.957C856.219 146.957 841.292 139.106 836.557 136.172C835.95 135.815 835.234 135.624 834.501 135.624C833.768 135.624 833.052 135.815 832.445 136.172C827.71 139.106 812.784 146.957 812.784 146.957V150.75H817.125V173.437H804.094V112.937H799.75C798.555 112.937 798.335 112.395 799.254 111.736L832.823 87.6687C833.284 87.34 833.893 87.1746 834.5 87.1746C835.107 87.1746 835.714 87.34 836.177 87.6687L869.746 111.736C870.665 112.395 870.445 112.937 869.25 112.937H864.906V173.437ZM895.312 173.437H869.25V116.719C872.162 116.719 873.812 115.245 874.379 113.863C874.495 113.579 874.569 113.266 874.611 112.937H895.315L895.312 173.437Z" fill="#F8F8F8"/>
<path d="M828.12 161.148H831.243V162.522H828.12V161.148ZM837.757 161.148H840.88V162.522H837.757V161.148Z" fill="#F8F8F8"/>
<defs>
<filter id="filter0_b_197_2" x="-10" y="-10" width="1940" height="495" filterUnits="userSpaceOnUse" color-interpolation-filters="sRGB">
<feFlood flood-opacity="0" result="BackgroundImageFix"/>
<feGaussianBlur in="BackgroundImageFix" stdDeviation="5"/>
<feComposite in2="SourceAlpha" operator="in" result="effect1_backgroundBlur_197_2"/>
<feBlend mode="normal" in="SourceGraphic" in2="effect1_backgroundBlur_197_2" result="shape"/>
</filter>
<linearGradient id="paint0_linear_197_2" x1="-48.0001" y1="-978.496" x2="1925.54" y2="-1024.01" gradientUnits="userSpaceOnUse">
<stop stop-color="#012EFD"/>
<stop offset="0.487847" stop-color="#7694FA"/>
<stop offset="1" stop-color="#DBFFEA"/>
</linearGradient>
</defs>
</svg>
