<svg width="113" height="29" viewBox="0 0 113 29" fill="none" xmlns="http://www.w3.org/2000/svg">
<path d="M29.68 12.04H27.72C27.6933 12.1467 27.6667 12.2533 27.64 12.36C27.6133 12.44 27.5733 12.5333 27.52 12.64H28.64L28.52 13.04H27.56C27.48 13.28 27.3733 13.5467 27.24 13.84H26.64C26.5333 14.1067 26.3867 14.3733 26.2 14.64H26.28C26.1733 14.7733 26.08 14.9067 26 15.04C25.92 15.1733 25.8267 15.3067 25.72 15.44H30.04L29.52 16.04H25.96C25.8533 16.1733 25.72 16.3067 25.56 16.44C25.4 16.5733 25.2533 16.7067 25.12 16.84H25.64C25.5333 16.9467 25.4 17.0533 25.24 17.16C25.1067 17.24 24.9733 17.3333 24.84 17.44H26.16L26 17.56L26.36 18.24H25.4L25.84 19.04H25.96L26.08 19.24H26.04L26.44 20.04H26.84L27.08 20.44H24L24.32 21.04H27.12L27.36 21.44H26.48L26.8 22.04H30.76L31.2 22.84H28.56L28.88 23.44H27.64L28.28 24.64H28.56L28.8 25.04H28.68L28.8 25.24H26.92L27.36 26.04L27.44 26.24H26.2L26.4 26.68C26.48 26.7867 26.52 26.9067 26.52 27.04H27.36V27.12C27.36 27.4133 27.24 27.6533 27 27.84H28.08C27.9467 27.9467 27.7733 28 27.56 28H19.36C19.2 28 19.0533 27.9867 18.92 27.96C18.8133 27.9067 18.6933 27.8667 18.56 27.84H17.48C17.2667 27.7333 17.08 27.6 16.92 27.44C16.7867 27.28 16.68 27.1467 16.6 27.04H15.8L15.72 26.92L15.44 26.24H16.72L16.6 26.04H12.8V26.24H10.76V27.04H14C13.9467 27.4133 13.7733 27.68 13.48 27.84H13.2C13.0133 27.9467 12.8133 28 12.6 28H4.76C4.52 28 4.33333 27.9467 4.2 27.84H4.52C4.22667 27.68 4.05333 27.4133 4 27.04H0.8C0.8 27.0133 0.8 27 0.8 27C0.773333 26.9733 0.76 26.9467 0.76 26.92V26.24H2.8V26.04H6.8V25.24H2.52V25.04H5.04V24.64H4.2V24.04H5.6V23.44H3.32V22.84H6.4V22.04H4.64V21.44H4.6V21.24H4.36V21.04H3.28V20.44H4.64V20.04H4.28V19.24H4.32V19.04H4.2V18.24H5.16V17.44H3.8V16.84H3.28V16.04H6.8V15.44H2.48V14.64H2.4V13.84H3V13.04H3.92V12.64H2.8V12.04H4.76V11.64H7.64V11.24H3.68V11.04H3.88V10.84H4.24V10.64H4.28V10.24H4.2V9.64H4.36V8.84H4.16V8.44H4.36V7.84H4.2V7.64H4.32V7.24H4.28V7.04H4.12V6.84H4.48V6.24H4.8V5.64H2.92V4.84H3.36V4.04H3.12V3.44H4.2V2.84H4.6V2.24H3.88V1.84H4.16V1.64H4.24V1.04H4.32C4.32 0.746665 4.44 0.479998 4.68 0.24H6.84C7 0.0799987 7.22667 -1.90735e-06 7.52 -1.90735e-06H19.36C20.5067 -1.90735e-06 21.5733 0.0799987 22.56 0.24H20.44C21.5067 0.399999 22.52 0.666666 23.48 1.04H23.4C23.8533 1.2 24.2933 1.4 24.72 1.64H24.64L25 1.84H24.68C24.8133 1.89333 24.92 1.96 25 2.04C25.1067 2.12 25.2133 2.18667 25.32 2.24H26.04C26.1733 2.34666 26.3067 2.45333 26.44 2.56C26.5733 2.64 26.6933 2.73333 26.8 2.84H26.4C26.5333 2.94667 26.64 3.05333 26.72 3.16C26.8267 3.24 26.9333 3.33333 27.04 3.44H25.96C26.0667 3.54667 26.16 3.65333 26.24 3.76C26.32 3.84 26.4 3.93333 26.48 4.04H26.68C26.8933 4.30666 27.08 4.57333 27.24 4.84H26.84C26.92 4.94666 26.9867 5.08 27.04 5.24C27.12 5.37333 27.2 5.50667 27.28 5.64H29.16L29.4 6.24H29.08C29.1067 6.34667 29.1333 6.45333 29.16 6.56C29.2133 6.64 29.2533 6.73333 29.28 6.84H28.88L28.96 7.04H29.12C29.1467 7.09333 29.16 7.16 29.16 7.24L29.28 7.64H29.4C29.4 7.72 29.4133 7.78667 29.44 7.84H29.48C29.5067 7.94667 29.52 8.05333 29.52 8.16C29.5467 8.24 29.56 8.33333 29.56 8.44H29.04C29.04 8.49333 29.04 8.56 29.04 8.64C29.04 8.72 29.0533 8.78667 29.08 8.84H29.32C29.32 8.97333 29.32 9.10667 29.32 9.24C29.3467 9.37333 29.36 9.50667 29.36 9.64V10.04H29.6V10.24H29.36V10.64H28.96C28.96 10.6667 28.9467 10.6933 28.92 10.72C28.92 10.7467 28.92 10.7867 28.92 10.84H29.32C29.32 10.8667 29.3067 10.8933 29.28 10.92C29.28 10.9467 29.28 10.9867 29.28 11.04H31.16C31.1333 11.0933 31.12 11.16 31.12 11.24H31.64L31.6 11.64H29.76C29.7067 11.8 29.68 11.9333 29.68 12.04ZM13.68 11.24H17.64V11.64H14.76V11.68H17.68C17.8667 11.68 18.0133 11.6667 18.12 11.64H19.96C20.2533 11.56 20.52 11.4267 20.76 11.24H20.2L20.4 11.04H18.52C18.6 10.96 18.6533 10.8933 18.68 10.84H18.28L18.4 10.64H18.8L18.92 10.24H19.12C19.1467 10.1867 19.16 10.12 19.16 10.04H18.92L18.96 9.64C18.96 9.37333 18.92 9.10667 18.84 8.84H18.6C18.5733 8.78667 18.5467 8.72 18.52 8.64C18.52 8.56 18.4933 8.49333 18.44 8.44H19C18.8933 8.22667 18.7467 8.02667 18.56 7.84H18.48C18.4 7.76 18.3067 7.69333 18.2 7.64H18.08C17.8133 7.50667 17.5333 7.44 17.24 7.44H14.32V7.64H14.2V7.84H14.36V8.44H14.16V8.84H14.36V9.64H14.2V10.24H14.28V10.64H14.24V10.84H13.88V11.04H13.68V11.24ZM16.84 20.44L16.68 20.04H16.24L15.92 19.28H14.28V20.04H14.64V20.44H16.84ZM13.28 20.44V21.04H14.04L13.8 20.44H13.28ZM16.92 21.24L16.84 21.04H14.36V21.24H14.6V21.44H14.64V22.04H16.4V22.84H13.32V23.44H15.6V24.04H14.2V24.64H15.04V25.04H12.52V25.24H18.16L18.04 25.04H18.16L17.96 24.64H17.64L17.4 24.04L17.12 23.44H18.4L18.12 22.84H20.72L20.36 22.04H16.4L16.16 21.44H17.04L16.92 21.24ZM53.6272 25.84V26.24H57.1072V26.92C57.1072 26.9733 57.0939 27.0133 57.0672 27.04H55.1872C55.1339 27.4133 54.9605 27.68 54.6672 27.84H54.3072C54.1739 27.9467 53.9872 28 53.7472 28H46.7472C46.5072 28 46.3205 27.9467 46.1872 27.84H46.5072C46.2405 27.6533 46.0805 27.3867 46.0272 27.04H47.9472V26.24H46.3472C46.2139 26.3733 46.0672 26.5067 45.9072 26.64C45.7739 26.7733 45.6272 26.9067 45.4672 27.04H45.0272C44.5472 27.3867 44.0672 27.6533 43.5872 27.84H42.3072C42.1205 27.92 41.9072 27.9867 41.6672 28.04C41.4539 28.12 41.2272 28.1867 40.9872 28.24H40.6672C40.4005 28.2933 40.1205 28.3333 39.8272 28.36C39.5605 28.3867 39.2805 28.4 38.9872 28.4C38.6672 28.4 38.3472 28.3867 38.0272 28.36C37.7339 28.3333 37.4405 28.2933 37.1472 28.24H37.4672C37.2005 28.1867 36.9339 28.12 36.6672 28.04C36.4272 27.9867 36.1872 27.92 35.9472 27.84H37.1872C36.6005 27.6267 36.0672 27.36 35.5872 27.04H36.0272C35.8405 26.9067 35.6672 26.7733 35.5072 26.64C35.3472 26.5067 35.1872 26.3733 35.0272 26.24H33.0272L32.6672 25.84C32.6405 25.7867 32.6005 25.72 32.5472 25.64C32.4939 25.56 32.4405 25.4933 32.3872 25.44H33.5872C33.5339 25.3333 33.4672 25.24 33.3872 25.16C33.3339 25.0533 33.2805 24.9467 33.2272 24.84H32.8672C32.8672 24.8133 32.8405 24.7467 32.7872 24.64H32.4272L32.3072 24.44H32.3472L32.1072 23.84H31.9072C31.8805 23.7333 31.8539 23.64 31.8272 23.56C31.8005 23.4533 31.7739 23.3467 31.7472 23.24H30.2272C30.1472 22.9467 30.1072 22.68 30.1072 22.44H31.4272V22.04C31.4272 21.9067 31.4272 21.7733 31.4272 21.64C31.4272 21.48 31.4405 21.3467 31.4672 21.24H32.6672C32.6939 21.1067 32.7205 20.9733 32.7472 20.84C32.7739 20.68 32.8005 20.5467 32.8272 20.44H31.7072L31.7872 20.24H31.8272L31.9072 20.04H31.8672C31.9205 19.9333 31.9739 19.84 32.0272 19.76C32.0805 19.6533 32.1205 19.5467 32.1472 19.44H29.7872L30.0272 19.04H29.1472C29.2272 18.96 29.2805 18.8933 29.3072 18.84H30.7472C30.8005 18.7867 30.8539 18.72 30.9072 18.64C30.9605 18.56 31.0139 18.4933 31.0672 18.44H31.1472C31.4139 18.12 31.6939 17.8533 31.9872 17.64H28.7072C28.8939 17.5067 29.0939 17.3733 29.3072 17.24C29.4939 17.08 29.6939 16.9467 29.9072 16.84H32.1072L32.4672 16.64H33.5872C33.6405 16.5867 33.7072 16.5467 33.7872 16.52C33.8672 16.4933 33.9339 16.4667 33.9872 16.44H34.4672C34.9472 16.2 35.4672 16 36.0272 15.84H38.4672C38.8405 15.7067 39.2139 15.6 39.5872 15.52C39.9872 15.4133 40.4005 15.32 40.8272 15.24H39.8272L40.4672 15.12L44.7072 14.44V14.24H46.7472V14.04H42.9072V13.84H45.1872C45.1872 13.7067 45.1872 13.6 45.1872 13.52C45.1872 13.4133 45.1739 13.32 45.1472 13.24C45.1205 13 45.0272 12.8 44.8672 12.64H44.1872C44.1605 12.6133 44.0939 12.5733 43.9872 12.52L43.7072 12.64H43.0272C42.9205 12.72 42.8139 12.8133 42.7072 12.92C42.6005 13 42.4805 13.1067 42.3472 13.24H42.3872C42.0939 13.5333 41.7205 13.68 41.2672 13.68H34.4672C34.0672 13.68 33.8005 13.5333 33.6672 13.24H33.6272C33.5472 13.1067 33.5205 12.96 33.5472 12.8V12.64H34.1872C34.2139 12.5867 34.2272 12.52 34.2272 12.44H31.6672C31.6672 12.3333 31.6939 12.2 31.7472 12.04H37.5072C37.5072 12.0133 37.5339 11.9467 37.5872 11.84H34.0272C34.1072 11.5733 34.2272 11.3067 34.3872 11.04H35.0672C35.1472 10.9067 35.2405 10.7733 35.3472 10.64C35.4539 10.5067 35.5605 10.3733 35.6672 10.24H32.6672L33.0272 9.84H38.8272C38.9339 9.73333 39.0405 9.64 39.1472 9.56C39.2805 9.45333 39.4005 9.34667 39.5072 9.24H35.8272L36.0672 9.04H34.9472C35.0805 8.93333 35.2272 8.84 35.3872 8.76C35.5472 8.65333 35.7072 8.54667 35.8672 8.44H37.7472C38.3072 8.12 38.8939 7.85333 39.5072 7.64H39.7872C40.5072 7.37333 41.3072 7.17333 42.1872 7.04C43.0939 6.88 44.0805 6.8 45.1472 6.8C47.3339 6.8 49.1872 7.08 50.7072 7.64H50.3872C50.6805 7.74667 50.9605 7.86667 51.2272 8C51.5205 8.13333 51.8005 8.28 52.0672 8.44H50.1872L51.0272 9.04H52.1472L52.3872 9.24H56.0672L56.6672 9.84H50.8672C50.9205 9.89333 50.9739 9.96 51.0272 10.04C51.0805 10.12 51.1339 10.1867 51.1872 10.24H54.1472C54.2539 10.3467 54.3472 10.48 54.4272 10.64C54.5339 10.7733 54.6139 10.9067 54.6672 11.04H54.0272L54.3872 11.84H57.9472C58.0005 11.9467 58.0272 12.0133 58.0272 12.04H52.2672C52.3205 12.0933 52.3472 12.16 52.3472 12.24C52.3739 12.32 52.4005 12.3867 52.4272 12.44H53.7472C53.7472 12.4667 53.7472 12.4933 53.7472 12.52C53.7739 12.5467 53.7872 12.5867 53.7872 12.64H54.4672L54.7072 13.84H52.3872C52.3872 13.8667 52.3872 13.8933 52.3872 13.92C52.4139 13.9467 52.4272 13.9867 52.4272 14.04H56.2672V14.24H54.2672V14.44C54.2939 14.5733 54.3072 14.7067 54.3072 14.84C54.3072 14.9733 54.3072 15.1067 54.3072 15.24H55.3472V15.84H52.8672V16.44H52.4272V16.64H51.3472V16.84H49.1472V17.64H52.4272V18.44H52.3472V18.84H50.9072V19.04H51.7872V19.44H54.4272V20.04H53.9472V20.44H54.2672V21.24H54.0272V22.44H52.7072V23.24H54.2272V23.84H54.4272V24.64H54.7872V24.84H55.1072V25.44H53.8672V25.84H53.6272ZM42.0272 12.4C41.8405 12.4 41.7072 12.4133 41.6272 12.44H42.4672C42.3872 12.4133 42.2405 12.4 42.0272 12.4ZM42.3072 19.36L41.9472 19.44H42.3072V19.36ZM40.9472 20.44H42.0672C41.7739 20.6533 41.6272 20.92 41.6272 21.24H40.4272V21.36C40.4272 21.6267 40.5205 21.8533 40.7072 22.04C40.8405 22.2267 41.1072 22.36 41.5072 22.44H42.4672C42.8672 22.36 43.2139 22.2267 43.5072 22.04C43.7472 21.8267 43.9739 21.56 44.1872 21.24H44.3872C44.4405 21.1067 44.4939 20.9867 44.5472 20.88C44.6005 20.7467 44.6405 20.6 44.6672 20.44H44.3472C44.3472 20.3867 44.3472 20.3467 44.3472 20.32C44.3739 20.2933 44.3872 20.2667 44.3872 20.24H44.4272V20.04H44.9072C44.9339 19.9333 44.9472 19.84 44.9472 19.76C44.9472 19.6533 44.9472 19.5467 44.9472 19.44H44.2672L42.3072 19.88C42.2005 19.9067 42.0939 19.9333 41.9872 19.96C41.9072 19.9867 41.8272 20.0133 41.7472 20.04C41.6672 20.0667 41.5872 20.0933 41.5072 20.12C41.4272 20.1467 41.3605 20.1867 41.3072 20.24H41.2672C41.2139 20.2667 41.1605 20.2933 41.1072 20.32C41.0539 20.3467 41.0005 20.3867 40.9472 20.44ZM41.1472 22.44H40.1472C40.2539 22.4667 40.4139 22.48 40.6272 22.48C40.7072 22.48 40.7872 22.48 40.8672 22.48C40.9739 22.48 41.0672 22.4667 41.1472 22.44ZM83.51 16.44C83.5367 16.5733 83.55 16.7067 83.55 16.84C83.55 16.9733 83.55 17.1067 83.55 17.24H80.71V17.64H79.07V18.04H80.63V18.24H78.83V18.84H77.83V19.04H80.07C80.07 19.12 80.0567 19.1867 80.03 19.24H79.91V19.44H80.27V19.48C80.27 19.5867 80.2567 19.7067 80.23 19.84C80.23 19.9733 80.2167 20.1067 80.19 20.24H79.91L79.79 21.04H80.39C80.39 21.1467 80.3633 21.28 80.31 21.44H80.19C80.1633 21.5467 80.1367 21.6533 80.11 21.76C80.0833 21.84 80.0567 21.9333 80.03 22.04H80.35C80.3233 22.1733 80.2833 22.3067 80.23 22.44C80.1767 22.5733 80.1233 22.7067 80.07 22.84H79.47L79.31 23.24H79.39C79.3367 23.3467 79.31 23.4133 79.31 23.44H79.15C79.0433 23.7067 78.8967 23.9733 78.71 24.24H78.79C78.7633 24.2933 78.7233 24.36 78.67 24.44C78.6167 24.52 78.5633 24.5867 78.51 24.64H78.47L77.99 25.24C77.9633 25.2667 77.9367 25.2933 77.91 25.32C77.8833 25.3467 77.8433 25.3867 77.79 25.44H77.59C77.4833 25.5467 77.3767 25.6533 77.27 25.76C77.1633 25.84 77.0433 25.9333 76.91 26.04H75.71L74.87 26.64H75.03C74.9767 26.6667 74.9233 26.6933 74.87 26.72C74.8167 26.7467 74.7633 26.7867 74.71 26.84H74.43C74.3767 26.8667 74.31 26.8933 74.23 26.92C74.15 26.9467 74.0833 26.9867 74.03 27.04H76.19C76.0567 27.12 75.91 27.2 75.75 27.28C75.59 27.3333 75.43 27.3867 75.27 27.44H74.59C74.4033 27.52 74.2033 27.6 73.99 27.68C73.7767 27.7333 73.5633 27.7867 73.35 27.84H73.51C73.19 27.92 72.8567 27.9867 72.51 28.04C72.1633 28.12 71.8033 28.1867 71.43 28.24H72.67C72.2433 28.2933 71.8033 28.3333 71.35 28.36C70.8967 28.3867 70.43 28.4 69.95 28.4C69.4433 28.4 68.9633 28.3867 68.51 28.36C68.0833 28.3333 67.6433 28.2933 67.19 28.24H65.91C65.5633 28.1867 65.2033 28.12 64.83 28.04C64.4833 27.9867 64.15 27.92 63.83 27.84H63.71C63.4967 27.7867 63.2833 27.7333 63.07 27.68C62.8833 27.6 62.6833 27.52 62.47 27.44H63.11C62.9767 27.3867 62.83 27.3333 62.67 27.28C62.51 27.2 62.3633 27.12 62.23 27.04H60.07L59.71 26.84H59.99L59.63 26.64H59.47C59.15 26.4267 58.87 26.2267 58.63 26.04H59.83C59.7233 25.9333 59.6167 25.84 59.51 25.76C59.4033 25.6533 59.2967 25.5467 59.19 25.44H59.39C59.3633 25.3867 59.3367 25.3467 59.31 25.32C59.2833 25.2933 59.2433 25.2667 59.19 25.24L58.71 24.64H58.75L58.47 24.24H58.39C58.2033 23.9733 58.0567 23.7067 57.95 23.44H58.07C58.0167 23.3333 57.99 23.2667 57.99 23.24H57.87L57.71 22.84H58.31C58.2833 22.7067 58.2433 22.5733 58.19 22.44C58.1367 22.3067 58.0833 22.1733 58.03 22.04H57.71C57.6833 21.9333 57.6567 21.84 57.63 21.76C57.6033 21.6533 57.5767 21.5467 57.55 21.44H57.31L57.19 21.04H56.79L56.67 20.24H57.07C57.0433 20.1067 57.0167 19.9733 56.99 19.84C56.99 19.7067 56.99 19.5867 56.99 19.48V19.44H56.27V19.24H56.07C56.07 19.1867 56.0567 19.1467 56.03 19.12C56.03 19.0933 56.03 19.0667 56.03 19.04H58.27C58.27 18.96 58.2567 18.8933 58.23 18.84H55.99V18.24H56.95V18.04H57.43V17.64H58.27V17.24H55.83C55.83 17.1067 55.83 16.9733 55.83 16.84C55.83 16.7067 55.8433 16.5733 55.87 16.44H55.35V16.04H59.31C59.3367 15.96 59.35 15.8533 59.35 15.72V15.44H58.27C58.27 15.3333 58.27 15.24 58.27 15.16C58.2967 15.0533 58.31 14.9467 58.31 14.84H58.71L58.83 14.04H57.51C57.5367 13.9333 57.5633 13.84 57.59 13.76C57.6167 13.6533 57.6433 13.5467 57.67 13.44H57.39C57.4433 13.3067 57.4833 13.1733 57.51 13.04C57.5633 12.88 57.6167 12.7467 57.67 12.64H57.71C57.7367 12.5867 57.7633 12.52 57.79 12.44C57.8167 12.36 57.8433 12.2933 57.87 12.24H57.83C57.83 12.2133 57.8567 12.1467 57.91 12.04H58.11C58.2167 11.7733 58.3633 11.5067 58.55 11.24H57.75L57.99 10.84H59.47C59.4967 10.7867 59.55 10.72 59.63 10.64H56.71C56.7633 10.5333 56.83 10.44 56.91 10.36C57.0167 10.2533 57.11 10.1467 57.19 10.04H58.11C58.2433 9.90667 58.3767 9.77333 58.51 9.64C58.67 9.48 58.8167 9.34667 58.95 9.24H60.79C61.03 9.02667 61.31 8.82667 61.63 8.64H62.39C62.4967 8.56 62.6033 8.49333 62.71 8.44C62.8433 8.36 62.9633 8.29333 63.07 8.24H60.71C60.95 8.10667 61.2433 7.97333 61.59 7.84H62.67C63.2833 7.6 63.9233 7.4 64.59 7.24H63.39C64.6967 6.94667 66.0833 6.8 67.55 6.8C69.0167 6.8 70.4033 6.94667 71.71 7.24H72.95C73.6167 7.4 74.2433 7.6 74.83 7.84H73.71C74.0567 7.97333 74.35 8.10667 74.59 8.24H76.95C77.0833 8.29333 77.2033 8.36 77.31 8.44C77.4433 8.49333 77.5633 8.56 77.67 8.64H76.91L77.75 9.24H75.91C76.07 9.34667 76.2167 9.48 76.35 9.64C76.51 9.77333 76.6567 9.90667 76.79 10.04H75.87C75.95 10.1467 76.03 10.2533 76.11 10.36C76.2167 10.44 76.2967 10.5333 76.35 10.64H79.31L79.43 10.84H77.99L78.23 11.24H79.03C79.2167 11.5067 79.3633 11.7733 79.47 12.04H79.27C79.3233 12.1467 79.35 12.2133 79.35 12.24H79.43L79.59 12.64H79.55C79.6033 12.7467 79.6567 12.88 79.71 13.04C79.7633 13.1733 79.8033 13.3067 79.83 13.44H80.23L80.35 14.04H80.11C80.1633 14.1467 80.19 14.28 80.19 14.44C80.2167 14.5733 80.2433 14.7067 80.27 14.84H80.59C80.6167 14.9467 80.63 15.0533 80.63 15.16C80.63 15.24 80.6433 15.3333 80.67 15.44H79.11V15.72C79.11 15.8533 79.1233 15.96 79.15 16.04H78.35V16.44H83.51ZM68.15 14.84C68.1233 14.9467 68.0967 15.0533 68.07 15.16C68.07 15.24 68.07 15.3333 68.07 15.44H69.19C69.1633 15.52 69.15 15.6 69.15 15.68C69.15 15.76 69.15 15.84 69.15 15.92V16.04H69.31V15.92C69.31 15.84 69.2967 15.76 69.27 15.68C69.27 15.6 69.27 15.52 69.27 15.44H70.83C70.83 15.3333 70.8167 15.24 70.79 15.16C70.79 15.0533 70.79 14.9467 70.79 14.84H70.47C70.4433 14.68 70.4033 14.5333 70.35 14.4C70.3233 14.2667 70.2833 14.1467 70.23 14.04H70.51C70.4033 13.8 70.2433 13.6 70.03 13.44H69.63C69.3633 13.28 69.0167 13.2 68.59 13.2C68.1633 13.2 67.83 13.28 67.59 13.44H67.87C67.7633 13.52 67.67 13.6133 67.59 13.72C67.51 13.8 67.4433 13.9067 67.39 14.04H68.71C68.6833 14.1467 68.6433 14.2667 68.59 14.4C68.5633 14.5333 68.5367 14.68 68.51 14.84H68.15ZM70.87 17.24H73.71V16.44H68.55C68.5233 16.3333 68.51 16.2 68.51 16.04H65.19C65.19 16.2 65.1767 16.3333 65.15 16.44H65.67V17.24H68.11V17.64H67.23V18.04H66.75V18.24H65.79C65.79 18.3467 65.79 18.4533 65.79 18.56C65.8167 18.64 65.83 18.7333 65.83 18.84H68.99V18.24H70.79V18.04H69.23V17.64H70.87V17.24ZM70.23 19.24V19.04H65.87V19.24H66.07V19.28C66.07 19.3067 66.07 19.3333 66.07 19.36C66.0967 19.3867 66.11 19.4133 66.11 19.44H66.79C66.8167 19.5733 66.83 19.7067 66.83 19.84C66.83 19.9733 66.8433 20.1067 66.87 20.24H66.47C66.5233 20.5867 66.5767 20.8533 66.63 21.04H67.07C67.1233 21.2 67.1767 21.3333 67.23 21.44H67.51C67.75 21.8133 68.2033 22 68.87 22C69.5367 22 69.99 21.8133 70.23 21.44H70.39C70.4167 21.3867 70.4433 21.3333 70.47 21.28C70.4967 21.2 70.5233 21.12 70.55 21.04H69.95C69.9767 20.9067 70.0033 20.7867 70.03 20.68C70.0567 20.5467 70.0833 20.4 70.11 20.24H70.39C70.4167 20.1067 70.43 19.9733 70.43 19.84C70.43 19.7067 70.4433 19.5733 70.47 19.44H70.11V19.24H70.23ZM106.614 25.04H112.574V25.84H109.174V26.44H108.614V26.84H106.134V27.04H107.374C107.321 27.4133 107.161 27.68 106.894 27.84H106.014C105.881 27.9467 105.681 28 105.414 28H97.7741C97.5341 28 97.3474 27.9467 97.2141 27.84H98.0941C97.8274 27.68 97.6674 27.4133 97.6141 27.04H96.3341V26.84H98.8141V26.44H99.3741V25.84H102.774V25.04H96.8141V24.24H98.2941V24.04H96.9741V23.64H97.0141V23.24H96.3741V22.44H96.8941V21.64H95.2541V20.84H95.6541V20.04H97.4941V19.24H97.0541V18.84H96.8941V18.64H96.7341V18.04H96.9741V17.84H97.1741V17.44H97.1341V17.04H97.0141V16.64H95.3341V16.24H95.7741V16.16C95.7741 16.0533 95.7607 15.96 95.7341 15.88C95.7341 15.8 95.7341 15.72 95.7341 15.64H96.5341C96.5074 15.5067 96.4807 15.4 96.4541 15.32C96.4274 15.2133 96.4007 15.12 96.3741 15.04H97.0941C96.9341 14.6933 96.7074 14.4267 96.4141 14.24H95.1341C94.8407 14.0533 94.4541 13.96 93.9741 13.96C93.4941 13.96 93.1207 14.0533 92.8541 14.24H93.8141C93.6807 14.3467 93.5474 14.4667 93.4141 14.6C93.3074 14.7067 93.2274 14.8533 93.1741 15.04H91.9741C91.9207 15.1467 91.8674 15.3467 91.8141 15.64H92.0141C91.9874 15.7467 91.9741 15.92 91.9741 16.16V16.24H91.6941V16.64H93.0141V17.04H93.0941V17.44H92.9741V17.84H92.6941V18.04H92.4141V18.64H92.8541V18.84H93.1341V19.24H92.9741V20.04H94.0141V20.84H92.8941V21.64H93.0941V22.44H92.6541V23.24H93.1341V23.64H93.0941V23.84H93.2141V24.04H95.4141V24.24H96.3341V25.04H93.8541V25.84H93.9341V26.44H92.4141V26.84H94.1341V27.04H94.5741C94.5207 27.4133 94.3474 27.68 94.0541 27.84H92.2141C92.0807 27.9467 91.8941 28 91.6541 28H84.0541C83.8141 28 83.6274 27.9467 83.4941 27.84H85.3341C85.0407 27.68 84.8674 27.4133 84.8141 27.04H84.3741V26.84H82.6541V26.44H84.1741V25.84H84.0941V25.04H86.5741V24.24H85.6541V24.04H83.4541V23.84H83.3341V23.64H83.3741V23.24H82.8941V22.44H83.3341V21.64H83.1341V20.84H84.2541V20.04H83.2141V19.24H83.3741V18.84H83.0941V18.64H82.6541V18.04H82.9341V17.84H83.2141V17.44H83.3341V17.04H83.2541V16.64H81.9341V16.24H82.2141V15.64H82.0141V15.04H83.2141V14.24H82.2141V13.64H83.0941V13.24H83.3341V12.64H83.1741V12.04H83.2141V11.04H83.4141V10.64H83.3741V10.04H83.8941V9.84H83.5741V9.24H84.0541V9.04H82.4541V8.64H83.6141V8.04H85.7741C85.8274 7.88 85.8807 7.74667 85.9341 7.64H84.6541C84.8674 7.34667 85.1607 7.2 85.5341 7.2H92.5341C92.9074 7.2 93.2007 7.34667 93.4141 7.64H94.0941C94.6807 7.37333 95.3074 7.17333 95.9741 7.04C96.6407 6.88 97.3341 6.8 98.0541 6.8C99.3874 6.8 100.587 7.08 101.654 7.64H102.094C102.227 7.69333 102.347 7.76 102.454 7.84C102.561 7.89333 102.667 7.96 102.774 8.04H102.214C102.347 8.12 102.481 8.21333 102.614 8.32C102.747 8.4 102.867 8.50667 102.974 8.64H106.094C106.254 8.74667 106.387 8.88 106.494 9.04H104.294C104.321 9.06667 104.347 9.09333 104.374 9.12C104.401 9.14667 104.427 9.18667 104.454 9.24H105.014C105.094 9.34667 105.174 9.45333 105.254 9.56C105.334 9.64 105.401 9.73333 105.454 9.84H105.814L105.934 10.04H105.414L105.774 10.64H105.814C105.867 10.7733 105.934 10.9067 106.014 11.04H105.814C105.947 11.3333 106.054 11.6 106.134 11.84C106.134 11.8667 106.161 11.9333 106.214 12.04H106.174C106.227 12.1467 106.254 12.2533 106.254 12.36C106.281 12.44 106.307 12.5333 106.334 12.64H106.494C106.547 12.7467 106.574 12.8533 106.574 12.96C106.601 13.04 106.627 13.1333 106.654 13.24H106.374C106.427 13.4 106.454 13.5333 106.454 13.64H105.614C105.641 13.7467 105.654 13.8533 105.654 13.96C105.654 14.04 105.667 14.1333 105.694 14.24H106.974C107.001 14.3467 107.014 14.48 107.014 14.64C107.041 14.7733 107.054 14.9067 107.054 15.04H106.334V15.64H105.574V16.24H105.134V16.64H106.814V17.04H106.934V17.44H106.974V17.84H106.774V18.04H106.534V18.64H106.694V18.84H106.854V19.24H107.294V20.04H105.454V20.84H105.054V21.64H106.694V22.44H106.174V23.24H106.814V23.64H106.774V24.04H108.094V24.24H106.614V25.04ZM93.1741 8.04H92.7341C92.7341 8.06667 92.7341 8.10667 92.7341 8.16C92.7607 8.18667 92.7741 8.22667 92.7741 8.28V8.32C92.8274 8.26667 92.8941 8.21333 92.9741 8.16C93.0541 8.10667 93.1207 8.06667 93.1741 8.04ZM91.6141 8.64V9.04H94.9341L95.4141 8.64H91.6141ZM92.7341 9.24V9.6C92.7874 9.52 92.8941 9.4 93.0541 9.24H92.7341Z" fill="#4C74F0"/>
</svg>
