<svg width="245" height="77" viewBox="0 0 245 77" fill="none" xmlns="http://www.w3.org/2000/svg">
<g filter="url(#filter0_d_155_4)">
<path d="M68.36 30.08H64.44C64.3867 30.2933 64.3333 30.5067 64.28 30.72C64.2267 30.88 64.1467 31.0667 64.04 31.28H66.28L66.04 32.08H64.12C63.96 32.56 63.7467 33.0933 63.48 33.68H62.28C62.0667 34.2133 61.7733 34.7467 61.4 35.28H61.56C61.3467 35.5467 61.16 35.8133 61 36.08C60.84 36.3467 60.6533 36.6133 60.44 36.88H69.08L68.04 38.08H60.92C60.7067 38.3467 60.44 38.6133 60.12 38.88C59.8 39.1467 59.5067 39.4133 59.24 39.68H60.28C60.0667 39.8933 59.8 40.1067 59.48 40.32C59.2133 40.48 58.9467 40.6667 58.68 40.88H61.32L61 41.12L61.72 42.48H59.8L60.68 44.08H60.92L61.16 44.48H61.08L61.88 46.08H62.68L63.16 46.88H57L57.64 48.08H63.24L63.72 48.88H61.96L62.6 50.08H70.52L71.4 51.68H66.12L66.76 52.88H64.28L65.56 55.28H66.12L66.6 56.08H66.36L66.6 56.48H62.84L63.72 58.08L63.88 58.48H61.4L61.8 59.36C61.96 59.5733 62.04 59.8133 62.04 60.08H63.72V60.24C63.72 60.8267 63.48 61.3067 63 61.68H65.16C64.8933 61.8933 64.5467 62 64.12 62H47.72C47.4 62 47.1067 61.9733 46.84 61.92C46.6267 61.8133 46.3867 61.7333 46.12 61.68H43.96C43.5333 61.4667 43.16 61.2 42.84 60.88C42.5733 60.56 42.36 60.2933 42.2 60.08H40.6L40.44 59.84L39.88 58.48H42.44L42.2 58.08H34.6V58.48H30.52V60.08H37C36.8933 60.8267 36.5467 61.36 35.96 61.68H35.4C35.0267 61.8933 34.6267 62 34.2 62H18.52C18.04 62 17.6667 61.8933 17.4 61.68H18.04C17.4533 61.36 17.1067 60.8267 17 60.08H10.6C10.6 60.0267 10.6 60 10.6 60C10.5467 59.9467 10.52 59.8933 10.52 59.84V58.48H14.6V58.08H22.6V56.48H14.04V56.08H19.08V55.28H17.4V54.08H20.2V52.88H15.64V51.68H21.8V50.08H18.28V48.88H18.2V48.48H17.72V48.08H15.56V46.88H18.28V46.08H17.56V44.48H17.64V44.08H17.4V42.48H19.32V40.88H16.6V39.68H15.56V38.08H22.6V36.88H13.96V35.28H13.8V33.68H15V32.08H16.84V31.28H14.6V30.08H18.52V29.28H24.28V28.48H16.36V28.08H16.76V27.68H17.48V27.28H17.56V26.48H17.4V25.28H17.72V23.68H17.32V22.88H17.72V21.68H17.4V21.28H17.64V20.48H17.56V20.08H17.24V19.68H17.96V18.48H18.6V17.28H14.84V15.68H15.72V14.08H15.24V12.88H17.4V11.68H18.2V10.48H16.76V9.68H17.32V9.28H17.48V8.08H17.64C17.64 7.49333 17.88 6.96 18.36 6.48H22.68C23 6.16 23.4533 6 24.04 6H47.72C50.0133 6 52.1467 6.16 54.12 6.48H49.88C52.0133 6.8 54.04 7.33333 55.96 8.08H55.8C56.7067 8.4 57.5867 8.8 58.44 9.28H58.28L59 9.68H58.36C58.6267 9.78666 58.84 9.92 59 10.08C59.2133 10.24 59.4267 10.3733 59.64 10.48H61.08C61.3467 10.6933 61.6133 10.9067 61.88 11.12C62.1467 11.28 62.3867 11.4667 62.6 11.68H61.8C62.0667 11.8933 62.28 12.1067 62.44 12.32C62.6533 12.48 62.8667 12.6667 63.08 12.88H60.92C61.1333 13.0933 61.32 13.3067 61.48 13.52C61.64 13.68 61.8 13.8667 61.96 14.08H62.36C62.7867 14.6133 63.16 15.1467 63.48 15.68H62.68C62.84 15.8933 62.9733 16.16 63.08 16.48C63.24 16.7467 63.4 17.0133 63.56 17.28H67.32L67.8 18.48H67.16C67.2133 18.6933 67.2667 18.9067 67.32 19.12C67.4267 19.28 67.5067 19.4667 67.56 19.68H66.76L66.92 20.08H67.24C67.2933 20.1867 67.32 20.32 67.32 20.48L67.56 21.28H67.8C67.8 21.44 67.8267 21.5733 67.88 21.68H67.96C68.0133 21.8933 68.04 22.1067 68.04 22.32C68.0933 22.48 68.12 22.6667 68.12 22.88H67.08C67.08 22.9867 67.08 23.12 67.08 23.28C67.08 23.44 67.1067 23.5733 67.16 23.68H67.64C67.64 23.9467 67.64 24.2133 67.64 24.48C67.6933 24.7467 67.72 25.0133 67.72 25.28V26.08H68.2V26.48H67.72V27.28H66.92C66.92 27.3333 66.8933 27.3867 66.84 27.44C66.84 27.4933 66.84 27.5733 66.84 27.68H67.64C67.64 27.7333 67.6133 27.7867 67.56 27.84C67.56 27.8933 67.56 27.9733 67.56 28.08H71.32C71.2667 28.1867 71.24 28.32 71.24 28.48H72.28L72.2 29.28H68.52C68.4133 29.6 68.36 29.8667 68.36 30.08ZM36.36 28.48H44.28V29.28H38.52V29.36H44.36C44.7333 29.36 45.0267 29.3333 45.24 29.28H48.92C49.5067 29.12 50.04 28.8533 50.52 28.48H49.4L49.8 28.08H46.04C46.2 27.92 46.3067 27.7867 46.36 27.68H45.56L45.8 27.28H46.6L46.84 26.48H47.24C47.2933 26.3733 47.32 26.24 47.32 26.08H46.84L46.92 25.28C46.92 24.7467 46.84 24.2133 46.68 23.68H46.2C46.1467 23.5733 46.0933 23.44 46.04 23.28C46.04 23.12 45.9867 22.9867 45.88 22.88H47C46.7867 22.4533 46.4933 22.0533 46.12 21.68H45.96C45.8 21.52 45.6133 21.3867 45.4 21.28H45.16C44.6267 21.0133 44.0667 20.88 43.48 20.88H37.64V21.28H37.4V21.68H37.72V22.88H37.32V23.68H37.72V25.28H37.4V26.48H37.56V27.28H37.48V27.68H36.76V28.08H36.36V28.48ZM42.68 46.88L42.36 46.08H41.48L40.84 44.56H37.56V46.08H38.28V46.88H42.68ZM35.56 46.88V48.08H37.08L36.6 46.88H35.56ZM42.84 48.48L42.68 48.08H37.72V48.48H38.2V48.88H38.28V50.08H41.8V51.68H35.64V52.88H40.2V54.08H37.4V55.28H39.08V56.08H34.04V56.48H45.32L45.08 56.08H45.32L44.92 55.28H44.28L43.8 54.08L43.24 52.88H45.8L45.24 51.68H50.44L49.72 50.08H41.8L41.32 48.88H43.08L42.84 48.48ZM116.254 57.68V58.48H123.214V59.84C123.214 59.9467 123.188 60.0267 123.134 60.08H119.374C119.268 60.8267 118.921 61.36 118.334 61.68H117.614C117.348 61.8933 116.974 62 116.494 62H102.494C102.014 62 101.641 61.8933 101.374 61.68H102.014C101.481 61.3067 101.161 60.7733 101.054 60.08H104.894V58.48H101.694C101.428 58.7467 101.134 59.0133 100.814 59.28C100.548 59.5467 100.254 59.8133 99.9344 60.08H99.0544C98.0944 60.7733 97.1344 61.3067 96.1744 61.68H93.6144C93.241 61.84 92.8144 61.9733 92.3344 62.08C91.9077 62.24 91.4544 62.3733 90.9744 62.48H90.3344C89.801 62.5867 89.241 62.6667 88.6544 62.72C88.121 62.7733 87.561 62.8 86.9744 62.8C86.3344 62.8 85.6944 62.7733 85.0544 62.72C84.4677 62.6667 83.881 62.5867 83.2944 62.48H83.9344C83.401 62.3733 82.8677 62.24 82.3344 62.08C81.8544 61.9733 81.3744 61.84 80.8944 61.68H83.3744C82.201 61.2533 81.1344 60.72 80.1744 60.08H81.0544C80.681 59.8133 80.3344 59.5467 80.0144 59.28C79.6944 59.0133 79.3744 58.7467 79.0544 58.48H75.0544L74.3344 57.68C74.281 57.5733 74.201 57.44 74.0944 57.28C73.9877 57.12 73.881 56.9867 73.7744 56.88H76.1744C76.0677 56.6667 75.9344 56.48 75.7744 56.32C75.6677 56.1067 75.561 55.8933 75.4544 55.68H74.7344C74.7344 55.6267 74.681 55.4933 74.5744 55.28H73.8544L73.6144 54.88H73.6944L73.2144 53.68H72.8144C72.761 53.4667 72.7077 53.28 72.6544 53.12C72.601 52.9067 72.5477 52.6933 72.4944 52.48H69.4544C69.2944 51.8933 69.2144 51.36 69.2144 50.88H71.8544V50.08C71.8544 49.8133 71.8544 49.5467 71.8544 49.28C71.8544 48.96 71.881 48.6933 71.9344 48.48H74.3344C74.3877 48.2133 74.441 47.9467 74.4944 47.68C74.5477 47.36 74.601 47.0933 74.6544 46.88H72.4144L72.5744 46.48H72.6544L72.8144 46.08H72.7344C72.841 45.8667 72.9477 45.68 73.0544 45.52C73.161 45.3067 73.241 45.0933 73.2944 44.88H68.5744L69.0544 44.08H67.2944C67.4544 43.92 67.561 43.7867 67.6144 43.68H70.4944C70.601 43.5733 70.7077 43.44 70.8144 43.28C70.921 43.12 71.0277 42.9867 71.1344 42.88H71.2944C71.8277 42.24 72.3877 41.7067 72.9744 41.28H66.4144C66.7877 41.0133 67.1877 40.7467 67.6144 40.48C67.9877 40.16 68.3877 39.8933 68.8144 39.68H73.2144L73.9344 39.28H76.1744C76.281 39.1733 76.4144 39.0933 76.5744 39.04C76.7344 38.9867 76.8677 38.9333 76.9744 38.88H77.9344C78.8944 38.4 79.9344 38 81.0544 37.68H85.9344C86.681 37.4133 87.4277 37.2 88.1744 37.04C88.9744 36.8267 89.801 36.64 90.6544 36.48H88.6544L89.9344 36.24L98.4144 34.88V34.48H102.494V34.08H94.8144V33.68H99.3744C99.3744 33.4133 99.3744 33.2 99.3744 33.04C99.3744 32.8267 99.3477 32.64 99.2944 32.48C99.241 32 99.0544 31.6 98.7344 31.28H97.3744C97.321 31.2267 97.1877 31.1467 96.9744 31.04L96.4144 31.28H95.0544C94.841 31.44 94.6277 31.6267 94.4144 31.84C94.201 32 93.961 32.2133 93.6944 32.48H93.7744C93.1877 33.0667 92.441 33.36 91.5344 33.36H77.9344C77.1344 33.36 76.601 33.0667 76.3344 32.48H76.2544C76.0944 32.2133 76.041 31.92 76.0944 31.6V31.28H77.3744C77.4277 31.1733 77.4544 31.04 77.4544 30.88H72.3344C72.3344 30.6667 72.3877 30.4 72.4944 30.08H84.0144C84.0144 30.0267 84.0677 29.8933 84.1744 29.68H77.0544C77.2144 29.1467 77.4544 28.6133 77.7744 28.08H79.1344C79.2944 27.8133 79.481 27.5467 79.6944 27.28C79.9077 27.0133 80.121 26.7467 80.3344 26.48H74.3344L75.0544 25.68H86.6544C86.8677 25.4667 87.081 25.28 87.2944 25.12C87.561 24.9067 87.801 24.6933 88.0144 24.48H80.6544L81.1344 24.08H78.8944C79.161 23.8667 79.4544 23.68 79.7744 23.52C80.0944 23.3067 80.4144 23.0933 80.7344 22.88H84.4944C85.6144 22.24 86.7877 21.7067 88.0144 21.28H88.5744C90.0144 20.7467 91.6144 20.3467 93.3744 20.08C95.1877 19.76 97.161 19.6 99.2944 19.6C103.668 19.6 107.374 20.16 110.414 21.28H109.774C110.361 21.4933 110.921 21.7333 111.454 22C112.041 22.2667 112.601 22.56 113.134 22.88H109.374L111.054 24.08H113.294L113.774 24.48H121.134L122.334 25.68H110.734C110.841 25.7867 110.948 25.92 111.054 26.08C111.161 26.24 111.268 26.3733 111.374 26.48H117.294C117.508 26.6933 117.694 26.96 117.854 27.28C118.068 27.5467 118.228 27.8133 118.334 28.08H117.054L117.774 29.68H124.894C125.001 29.8933 125.054 30.0267 125.054 30.08H113.534C113.641 30.1867 113.694 30.32 113.694 30.48C113.748 30.64 113.801 30.7733 113.854 30.88H116.494C116.494 30.9333 116.494 30.9867 116.494 31.04C116.548 31.0933 116.574 31.1733 116.574 31.28H117.934L118.414 33.68H113.774C113.774 33.7333 113.774 33.7867 113.774 33.84C113.828 33.8933 113.854 33.9733 113.854 34.08H121.534V34.48H117.534V34.88C117.588 35.1467 117.614 35.4133 117.614 35.68C117.614 35.9467 117.614 36.2133 117.614 36.48H119.694V37.68H114.734V38.88H113.854V39.28H111.694V39.68H107.294V41.28H113.854V42.88H113.694V43.68H110.814V44.08H112.574V44.88H117.854V46.08H116.894V46.88H117.534V48.48H117.054V50.88H114.414V52.48H117.454V53.68H117.854V55.28H118.574V55.68H119.214V56.88H116.734V57.68H116.254ZM93.0544 30.8C92.681 30.8 92.4144 30.8267 92.2544 30.88H93.9344C93.7744 30.8267 93.481 30.8 93.0544 30.8ZM93.6144 44.72L92.8944 44.88H93.6144V44.72ZM90.8944 46.88H93.1344C92.5477 47.3067 92.2544 47.84 92.2544 48.48H89.8544V48.72C89.8544 49.2533 90.041 49.7067 90.4144 50.08C90.681 50.4533 91.2144 50.72 92.0144 50.88H93.9344C94.7344 50.72 95.4277 50.4533 96.0144 50.08C96.4944 49.6533 96.9477 49.12 97.3744 48.48H97.7744C97.881 48.2133 97.9877 47.9733 98.0944 47.76C98.201 47.4933 98.281 47.2 98.3344 46.88H97.6944C97.6944 46.7733 97.6944 46.6933 97.6944 46.64C97.7477 46.5867 97.7744 46.5333 97.7744 46.48H97.8544V46.08H98.8144C98.8677 45.8667 98.8944 45.68 98.8944 45.52C98.8944 45.3067 98.8944 45.0933 98.8944 44.88H97.5344L93.6144 45.76C93.401 45.8133 93.1877 45.8667 92.9744 45.92C92.8144 45.9733 92.6544 46.0267 92.4944 46.08C92.3344 46.1333 92.1744 46.1867 92.0144 46.24C91.8544 46.2933 91.721 46.3733 91.6144 46.48H91.5344C91.4277 46.5333 91.321 46.5867 91.2144 46.64C91.1077 46.6933 91.001 46.7733 90.8944 46.88ZM91.2944 50.88H89.2944C89.5077 50.9333 89.8277 50.96 90.2544 50.96C90.4144 50.96 90.5744 50.96 90.7344 50.96C90.9477 50.96 91.1344 50.9333 91.2944 50.88ZM176.02 38.88C176.073 39.1467 176.1 39.4133 176.1 39.68C176.1 39.9467 176.1 40.2133 176.1 40.48H170.42V41.28H167.14V42.08H170.26V42.48H166.66V43.68H164.66V44.08H169.14C169.14 44.24 169.113 44.3733 169.06 44.48H168.82V44.88H169.54V44.96C169.54 45.1733 169.513 45.4133 169.46 45.68C169.46 45.9467 169.433 46.2133 169.38 46.48H168.82L168.58 48.08H169.78C169.78 48.2933 169.727 48.56 169.62 48.88H169.38C169.327 49.0933 169.273 49.3067 169.22 49.52C169.167 49.68 169.113 49.8667 169.06 50.08H169.7C169.647 50.3467 169.567 50.6133 169.46 50.88C169.353 51.1467 169.247 51.4133 169.14 51.68H167.94L167.62 52.48H167.78C167.673 52.6933 167.62 52.8267 167.62 52.88H167.3C167.087 53.4133 166.793 53.9467 166.42 54.48H166.58C166.527 54.5867 166.447 54.72 166.34 54.88C166.233 55.04 166.127 55.1733 166.02 55.28H165.94L164.98 56.48C164.927 56.5333 164.873 56.5867 164.82 56.64C164.767 56.6933 164.687 56.7733 164.58 56.88H164.18C163.967 57.0933 163.753 57.3067 163.54 57.52C163.327 57.68 163.087 57.8667 162.82 58.08H160.42L158.74 59.28H159.06C158.953 59.3333 158.847 59.3867 158.74 59.44C158.633 59.4933 158.527 59.5733 158.42 59.68H157.86C157.753 59.7333 157.62 59.7867 157.46 59.84C157.3 59.8933 157.167 59.9733 157.06 60.08H161.38C161.113 60.24 160.82 60.4 160.5 60.56C160.18 60.6667 159.86 60.7733 159.54 60.88H158.18C157.807 61.04 157.407 61.2 156.98 61.36C156.553 61.4667 156.127 61.5733 155.7 61.68H156.02C155.38 61.84 154.713 61.9733 154.02 62.08C153.327 62.24 152.607 62.3733 151.86 62.48H154.34C153.487 62.5867 152.607 62.6667 151.7 62.72C150.793 62.7733 149.86 62.8 148.9 62.8C147.887 62.8 146.927 62.7733 146.02 62.72C145.167 62.6667 144.287 62.5867 143.38 62.48H140.82C140.127 62.3733 139.407 62.24 138.66 62.08C137.967 61.9733 137.3 61.84 136.66 61.68H136.42C135.993 61.5733 135.567 61.4667 135.14 61.36C134.767 61.2 134.367 61.04 133.94 60.88H135.22C134.953 60.7733 134.66 60.6667 134.34 60.56C134.02 60.4 133.727 60.24 133.46 60.08H129.14L128.42 59.68H128.98L128.26 59.28H127.94C127.3 58.8533 126.74 58.4533 126.26 58.08H128.66C128.447 57.8667 128.233 57.68 128.02 57.52C127.807 57.3067 127.593 57.0933 127.38 56.88H127.78C127.727 56.7733 127.673 56.6933 127.62 56.64C127.567 56.5867 127.487 56.5333 127.38 56.48L126.42 55.28H126.5L125.94 54.48H125.78C125.407 53.9467 125.113 53.4133 124.9 52.88H125.14C125.033 52.6667 124.98 52.5333 124.98 52.48H124.74L124.42 51.68H125.62C125.567 51.4133 125.487 51.1467 125.38 50.88C125.273 50.6133 125.167 50.3467 125.06 50.08H124.42C124.367 49.8667 124.313 49.68 124.26 49.52C124.207 49.3067 124.153 49.0933 124.1 48.88H123.62L123.38 48.08H122.58L122.34 46.48H123.14C123.087 46.2133 123.033 45.9467 122.98 45.68C122.98 45.4133 122.98 45.1733 122.98 44.96V44.88H121.54V44.48H121.14C121.14 44.3733 121.113 44.2933 121.06 44.24C121.06 44.1867 121.06 44.1333 121.06 44.08H125.54C125.54 43.92 125.513 43.7867 125.46 43.68H120.98V42.48H122.9V42.08H123.86V41.28H125.54V40.48H120.66C120.66 40.2133 120.66 39.9467 120.66 39.68C120.66 39.4133 120.687 39.1467 120.74 38.88H119.7V38.08H127.62C127.673 37.92 127.7 37.7067 127.7 37.44V36.88H125.54C125.54 36.6667 125.54 36.48 125.54 36.32C125.593 36.1067 125.62 35.8933 125.62 35.68H126.42L126.66 34.08H124.02C124.073 33.8667 124.127 33.68 124.18 33.52C124.233 33.3067 124.287 33.0933 124.34 32.88H123.78C123.887 32.6133 123.967 32.3467 124.02 32.08C124.127 31.76 124.233 31.4933 124.34 31.28H124.42C124.473 31.1733 124.527 31.04 124.58 30.88C124.633 30.72 124.687 30.5867 124.74 30.48H124.66C124.66 30.4267 124.713 30.2933 124.82 30.08H125.22C125.433 29.5467 125.727 29.0133 126.1 28.48H124.5L124.98 27.68H127.94C127.993 27.5733 128.1 27.44 128.26 27.28H122.42C122.527 27.0667 122.66 26.88 122.82 26.72C123.033 26.5067 123.22 26.2933 123.38 26.08H125.22C125.487 25.8133 125.753 25.5467 126.02 25.28C126.34 24.96 126.633 24.6933 126.9 24.48H130.58C131.06 24.0533 131.62 23.6533 132.26 23.28H133.78C133.993 23.12 134.207 22.9867 134.42 22.88C134.687 22.72 134.927 22.5867 135.14 22.48H130.42C130.9 22.2133 131.487 21.9467 132.18 21.68H134.34C135.567 21.2 136.847 20.8 138.18 20.48H135.78C138.393 19.8933 141.167 19.6 144.1 19.6C147.033 19.6 149.807 19.8933 152.42 20.48H154.9C156.233 20.8 157.487 21.2 158.66 21.68H156.42C157.113 21.9467 157.7 22.2133 158.18 22.48H162.9C163.167 22.5867 163.407 22.72 163.62 22.88C163.887 22.9867 164.127 23.12 164.34 23.28H162.82L164.5 24.48H160.82C161.14 24.6933 161.433 24.96 161.7 25.28C162.02 25.5467 162.313 25.8133 162.58 26.08H160.74C160.9 26.2933 161.06 26.5067 161.22 26.72C161.433 26.88 161.593 27.0667 161.7 27.28H167.62L167.86 27.68H164.98L165.46 28.48H167.06C167.433 29.0133 167.727 29.5467 167.94 30.08H167.54C167.647 30.2933 167.7 30.4267 167.7 30.48H167.86L168.18 31.28H168.1C168.207 31.4933 168.313 31.76 168.42 32.08C168.527 32.3467 168.607 32.6133 168.66 32.88H169.46L169.7 34.08H169.22C169.327 34.2933 169.38 34.56 169.38 34.88C169.433 35.1467 169.487 35.4133 169.54 35.68H170.18C170.233 35.8933 170.26 36.1067 170.26 36.32C170.26 36.48 170.287 36.6667 170.34 36.88H167.22V37.44C167.22 37.7067 167.247 37.92 167.3 38.08H165.7V38.88H176.02ZM145.3 35.68C145.247 35.8933 145.193 36.1067 145.14 36.32C145.14 36.48 145.14 36.6667 145.14 36.88H147.38C147.327 37.04 147.3 37.2 147.3 37.36C147.3 37.52 147.3 37.68 147.3 37.84V38.08H147.62V37.84C147.62 37.68 147.593 37.52 147.54 37.36C147.54 37.2 147.54 37.04 147.54 36.88H150.66C150.66 36.6667 150.633 36.48 150.58 36.32C150.58 36.1067 150.58 35.8933 150.58 35.68H149.94C149.887 35.36 149.807 35.0667 149.7 34.8C149.647 34.5333 149.567 34.2933 149.46 34.08H150.02C149.807 33.6 149.487 33.2 149.06 32.88H148.26C147.727 32.56 147.033 32.4 146.18 32.4C145.327 32.4 144.66 32.56 144.18 32.88H144.74C144.527 33.04 144.34 33.2267 144.18 33.44C144.02 33.6 143.887 33.8133 143.78 34.08H146.42C146.367 34.2933 146.287 34.5333 146.18 34.8C146.127 35.0667 146.073 35.36 146.02 35.68H145.3ZM150.74 40.48H156.42V38.88H146.1C146.047 38.6667 146.02 38.4 146.02 38.08H139.38C139.38 38.4 139.353 38.6667 139.3 38.88H140.34V40.48H145.22V41.28H143.46V42.08H142.5V42.48H140.58C140.58 42.6933 140.58 42.9067 140.58 43.12C140.633 43.28 140.66 43.4667 140.66 43.68H146.98V42.48H150.58V42.08H147.46V41.28H150.74V40.48ZM149.46 44.48V44.08H140.74V44.48H141.14V44.56C141.14 44.6133 141.14 44.6667 141.14 44.72C141.193 44.7733 141.22 44.8267 141.22 44.88H142.58C142.633 45.1467 142.66 45.4133 142.66 45.68C142.66 45.9467 142.687 46.2133 142.74 46.48H141.94C142.047 47.1733 142.153 47.7067 142.26 48.08H143.14C143.247 48.4 143.353 48.6667 143.46 48.88H144.02C144.5 49.6267 145.407 50 146.74 50C148.073 50 148.98 49.6267 149.46 48.88H149.78C149.833 48.7733 149.887 48.6667 149.94 48.56C149.993 48.4 150.047 48.24 150.1 48.08H148.9C148.953 47.8133 149.007 47.5733 149.06 47.36C149.113 47.0933 149.167 46.8 149.22 46.48H149.78C149.833 46.2133 149.86 45.9467 149.86 45.68C149.86 45.4133 149.887 45.1467 149.94 44.88H149.22V44.48H149.46ZM222.228 56.08H234.148V57.68H227.348V58.88H226.228V59.68H221.268V60.08H223.748C223.641 60.8267 223.321 61.36 222.788 61.68H221.028C220.761 61.8933 220.361 62 219.828 62H204.548C204.068 62 203.695 61.8933 203.428 61.68H205.188C204.655 61.36 204.335 60.8267 204.228 60.08H201.668V59.68H206.628V58.88H207.748V57.68H214.548V56.08H202.628V54.48H205.588V54.08H202.948V53.28H203.028V52.48H201.748V50.88H202.788V49.28H199.508V47.68H200.308V46.08H203.988V44.48H203.108V43.68H202.788V43.28H202.468V42.08H202.948V41.68H203.348V40.88H203.268V40.08H203.028V39.28H199.668V38.48H200.548V38.32C200.548 38.1067 200.521 37.92 200.468 37.76C200.468 37.6 200.468 37.44 200.468 37.28H202.068C202.015 37.0133 201.961 36.8 201.908 36.64C201.855 36.4267 201.801 36.24 201.748 36.08H203.188C202.868 35.3867 202.415 34.8533 201.828 34.48H199.268C198.681 34.1067 197.908 33.92 196.948 33.92C195.988 33.92 195.241 34.1067 194.708 34.48H196.628C196.361 34.6933 196.095 34.9333 195.828 35.2C195.615 35.4133 195.455 35.7067 195.348 36.08H192.948C192.841 36.2933 192.735 36.6933 192.628 37.28H193.028C192.975 37.4933 192.948 37.84 192.948 38.32V38.48H192.388V39.28H195.028V40.08H195.188V40.88H194.948V41.68H194.388V42.08H193.828V43.28H194.708V43.68H195.268V44.48H194.948V46.08H197.028V47.68H194.788V49.28H195.188V50.88H194.308V52.48H195.268V53.28H195.188V53.68H195.428V54.08H199.828V54.48H201.668V56.08H196.708V57.68H196.868V58.88H193.828V59.68H197.268V60.08H198.148C198.041 60.8267 197.695 61.36 197.108 61.68H193.428C193.161 61.8933 192.788 62 192.308 62H177.108C176.628 62 176.255 61.8933 175.988 61.68H179.668C179.081 61.36 178.735 60.8267 178.628 60.08H177.748V59.68H174.308V58.88H177.348V57.68H177.188V56.08H182.148V54.48H180.308V54.08H175.908V53.68H175.668V53.28H175.748V52.48H174.788V50.88H175.668V49.28H175.268V47.68H177.508V46.08H175.428V44.48H175.748V43.68H175.188V43.28H174.308V42.08H174.868V41.68H175.428V40.88H175.668V40.08H175.508V39.28H172.868V38.48H173.428V37.28H173.028V36.08H175.428V34.48H173.428V33.28H175.188V32.48H175.668V31.28H175.348V30.08H175.428V28.08H175.828V27.28H175.748V26.08H176.788V25.68H176.148V24.48H177.108V24.08H173.908V23.28H176.228V22.08H180.548C180.655 21.76 180.761 21.4933 180.868 21.28H178.308C178.735 20.6933 179.321 20.4 180.068 20.4H194.068C194.815 20.4 195.401 20.6933 195.828 21.28H197.188C198.361 20.7467 199.615 20.3467 200.948 20.08C202.281 19.76 203.668 19.6 205.108 19.6C207.775 19.6 210.175 20.16 212.308 21.28H213.188C213.455 21.3867 213.695 21.52 213.908 21.68C214.121 21.7867 214.335 21.92 214.548 22.08H213.428C213.695 22.24 213.961 22.4267 214.228 22.64C214.495 22.8 214.735 23.0133 214.948 23.28H221.188C221.508 23.4933 221.775 23.76 221.988 24.08H217.588C217.641 24.1333 217.695 24.1867 217.748 24.24C217.801 24.2933 217.855 24.3733 217.908 24.48H219.028C219.188 24.6933 219.348 24.9067 219.508 25.12C219.668 25.28 219.801 25.4667 219.908 25.68H220.628L220.868 26.08H219.828L220.548 27.28H220.628C220.735 27.5467 220.868 27.8133 221.028 28.08H220.628C220.895 28.6667 221.108 29.2 221.268 29.68C221.268 29.7333 221.321 29.8667 221.428 30.08H221.348C221.455 30.2933 221.508 30.5067 221.508 30.72C221.561 30.88 221.615 31.0667 221.668 31.28H221.988C222.095 31.4933 222.148 31.7067 222.148 31.92C222.201 32.08 222.255 32.2667 222.308 32.48H221.748C221.855 32.8 221.908 33.0667 221.908 33.28H220.228C220.281 33.4933 220.308 33.7067 220.308 33.92C220.308 34.08 220.335 34.2667 220.388 34.48H222.948C223.001 34.6933 223.028 34.96 223.028 35.28C223.081 35.5467 223.108 35.8133 223.108 36.08H221.668V37.28H220.148V38.48H219.268V39.28H222.628V40.08H222.868V40.88H222.948V41.68H222.548V42.08H222.068V43.28H222.388V43.68H222.708V44.48H223.588V46.08H219.908V47.68H219.108V49.28H222.388V50.88H221.348V52.48H222.628V53.28H222.548V54.08H225.188V54.48H222.228V56.08ZM195.348 22.08H194.468C194.468 22.1333 194.468 22.2133 194.468 22.32C194.521 22.3733 194.548 22.4533 194.548 22.56V22.64C194.655 22.5333 194.788 22.4267 194.948 22.32C195.108 22.2133 195.241 22.1333 195.348 22.08ZM192.228 23.28V24.08H198.868L199.828 23.28H192.228ZM194.468 24.48V25.2C194.575 25.04 194.788 24.8 195.108 24.48H194.468Z" fill="#223DAE"/>
</g>
<defs>
<filter id="filter0_d_155_4" x="0.52002" y="0" width="243.628" height="76.7998" filterUnits="userSpaceOnUse" color-interpolation-filters="sRGB">
<feFlood flood-opacity="0" result="BackgroundImageFix"/>
<feColorMatrix in="SourceAlpha" type="matrix" values="0 0 0 0 0 0 0 0 0 0 0 0 0 0 0 0 0 0 127 0" result="hardAlpha"/>
<feOffset dy="4"/>
<feGaussianBlur stdDeviation="5"/>
<feComposite in2="hardAlpha" operator="out"/>
<feColorMatrix type="matrix" values="0 0 0 0 0 0 0 0 0 0 0 0 0 0 0 0 0 0 0.25 0"/>
<feBlend mode="normal" in2="BackgroundImageFix" result="effect1_dropShadow_155_4"/>
<feBlend mode="normal" in="SourceGraphic" in2="effect1_dropShadow_155_4" result="shape"/>
</filter>
</defs>
</svg>
